<svg xmlns="http://www.w3.org/2000/svg" width="141" height="97" viewBox="0 0 141 97">
  <g id="Group_27" data-name="Group 27" transform="translate(-3 -17)">
    <path id="Rectangle_72" data-name="Rectangle 72" d="M15.5,0h0A15.5,15.5,0,0,1,31,15.5V55a0,0,0,0,1,0,0H0a0,0,0,0,1,0,0V15.5A15.5,15.5,0,0,1,15.5,0Z" transform="translate(113 59)" fill="#fe346e"/>
    <path id="Rectangle_73" data-name="Rectangle 73" d="M14,0h0A14,14,0,0,1,28,14V55a0,0,0,0,1,0,0H0a0,0,0,0,1,0,0V14A14,14,0,0,1,14,0Z" transform="translate(3 59)" fill="#fe346e"/>
    <path id="Rectangle_75" data-name="Rectangle 75" d="M11,0H71A11,11,0,0,1,82,11V43a2,2,0,0,1-2,2H2a2,2,0,0,1-2-2V11A11,11,0,0,1,11,0Z" transform="translate(31 17)" fill="#fe346e"/>
    <rect id="Rectangle_70" data-name="Rectangle 70" width="127" height="41" transform="translate(10 73)" fill="#fe346e"/>
  </g>
</svg>
